<svg width="388" height="112" viewBox="0 0 388 112" fill="none" xmlns="http://www.w3.org/2000/svg">
<path d="M53.4793 17.8828H100.585L65.9528 69.2142H18.8474L53.4793 17.8828Z" fill="#F2F2F2"/>
<path d="M55.5421 73.9716L42.1284 93.8535H91.4682L126.1 42.5222H89.6842L68.4661 73.9716H55.5421Z" fill="#F2F2F2"/>
<path d="M130.774 39.1719H145.395L146.414 65.1184L156.421 39.1719H168.286L169.844 65.1184L179.911 39.1719H186.203L171.402 77.2228H157.919L156.661 55.7106L147.672 77.2228H133.291L130.774 39.1719ZM214.305 77.2228H200.283L199.444 67.6951H188.358L184.103 77.2228H178.291L195.968 39.1719H210.17L214.305 77.2228ZM190.335 63.3208H199.024L197.646 47.0218L190.335 63.3208ZM225.244 39.1719H238.247L231.177 72.1893H243.341L242.322 77.2228H217.155L225.244 39.1719ZM254.152 39.1719H267.156L260.085 72.1893H272.249L271.23 77.2228H246.063L254.152 39.1719ZM283.06 39.1719H308.288L307.329 43.726H295.105L292.588 55.2911H302.835L301.876 59.7853H291.629L288.873 72.6088H301.097L300.198 77.2228H274.971L283.06 39.1719ZM313.197 39.1719H338.425L337.466 43.726H325.182L322.845 54.6919H333.092L332.133 59.3059H321.886L318.051 77.2228H305.108L313.197 39.1719ZM357.852 62.8414L354.796 77.2228H341.793L345.089 61.8227L339.216 39.1719H353.598L357.673 54.2125L366.661 39.1719H373.133L357.852 62.8414Z" fill="#F2F2F2"/>
</svg>
